<?xml version="1.0" encoding="utf-8"?>
<!-- Svg Vector Icons : http://www.onlinewebfonts.com/icon -->
<!DOCTYPE svg PUBLIC "-//W3C//DTD SVG 1.1//EN" "http://www.w3.org/Graphics/SVG/1.1/DTD/svg11.dtd">
<svg version="1.1" xmlns="http://www.w3.org/2000/svg" xmlns:xlink="http://www.w3.org/1999/xlink" x="0px" y="0px" viewBox="0 0 1000 1000" enable-background="new 0 0 1000 1000" xml:space="preserve">
<metadata> Svg Vector Icons : http://www.onlinewebfonts.com/icon </metadata>
<g><path d="M811.1,440.1c-7.6,0-15,0.5-22.4,1.4c0.2-4,0.3-8.1,0.3-12.2c0-126.1-102.2-228.3-228.3-228.3c-85.8,0-160.5,47.3-199.5,117.2c-7-0.7-14.1-1.1-21.3-1.1c-95.8,0-176.9,62.6-204.7,149.2C63.1,485.7,10,551.5,10,629.8C10,723.2,85.8,799,179.2,799c6.4,0,12.8-0.4,19.1-1.1h620.8v-0.2C914.2,793.5,990,715.1,990,619C990,520.2,909.9,440.1,811.1,440.1z M562.3,694.1c0,33.6-27.3,60.9-60.9,60.9h-2.8c-33.6,0-60.9-27.3-60.9-60.9v-2.8c0-33.6,27.3-60.9,60.9-60.9h2.8c33.6,0,60.9,27.3,60.9,60.9V694.1z M562.3,538.5c0,33.6-27.3,60.9-60.9,60.9h-2.8c-33.6,0-60.9-27.3-60.9-60.9V378.6c0-33.6,27.3-60.9,60.9-60.9h2.8c33.6,0,60.9,27.3,60.9,60.9V538.5z"/></g>
</svg>