<svg id="Layer_1" enable-background="new 0 0 256 256" height="512" viewBox="0 0 256 256" width="512" xmlns="http://www.w3.org/2000/svg"><g><g><path d="m191.81 55.042h-58.938l-29.47 51.043 29.47 51.042h58.938l29.47-51.042z" fill="#8852a8"/></g><g><path d="m103.402 106.085h-58.938l-29.47 51.042 29.47 51.043h58.938l29.47-51.043z" fill="#fcc24c"/></g><g><path d="m103.402 4h-58.938l-29.47 51.042 29.47 51.043h58.938l29.47-51.043z" fill="#526faa"/></g><g><path d="m191.81 55.042h-10l29.47 51.043-29.47 51.042h10l29.47-51.042z" fill="#6a348a"/></g><g><path d="m54.464 106.085h-10l-29.47 51.042 29.47 51.043h10l-29.47-51.043z" fill="#fce06a"/></g><g><path d="m54.464 4h-10l-29.47 51.042 29.47 51.043h10l-29.47-51.043z" fill="#708dc8"/></g><g><path d="m103.402 210.17h-58.939c-.714 0-1.375-.381-1.732-1l-29.469-51.042c-.357-.619-.357-1.381 0-2l29.469-51.042c.357-.619 1.018-1 1.732-1h58.939c.714 0 1.375.381 1.732 1l29.469 51.042c.357.619.357 1.381 0 2l-29.469 51.042c-.357.619-1.017 1-1.732 1zm-57.784-4h56.629l28.314-49.042-28.314-49.042h-56.629l-28.314 49.042z" fill="#690589"/></g><g><path d="m103.402 108.085h-58.939c-.714 0-1.375-.381-1.732-1l-29.469-51.043c-.357-.619-.357-1.381 0-2l29.469-51.042c.357-.619 1.018-1 1.732-1h58.939c.714 0 1.375.381 1.732 1l29.469 51.042c.357.619.357 1.381 0 2l-29.469 51.042c-.357.62-1.017 1.001-1.732 1.001zm-57.784-4h56.629l28.314-49.042-28.313-49.043h-56.63l-28.314 49.042z" fill="#690589"/></g><g><path d="m191.81 159.127h-58.938c-.714 0-1.375-.381-1.732-1l-29.469-51.042c-.357-.619-.357-1.381 0-2l29.469-51.042c.357-.619 1.018-1 1.732-1h58.938c.714 0 1.375.381 1.732 1l29.47 51.042c.357.619.357 1.381 0 2l-29.47 51.042c-.357.619-1.018 1-1.732 1zm-57.784-4h56.629l28.315-49.042-28.315-49.042h-56.629l-28.314 49.042z" fill="#690589"/></g><g><path d="m190.665 252c-9.136 0-16.264-7.908-15.318-16.995l7.39-71.012h15.855l7.39 71.012c.946 9.087-6.182 16.995-15.317 16.995z" fill="#8852a8"/></g><g><path d="m190.665 254c-4.92 0-9.631-2.096-12.925-5.751-3.294-3.654-4.891-8.557-4.382-13.451l7.39-71.012c.106-1.019.965-1.793 1.989-1.793h15.855c1.024 0 1.883.774 1.989 1.793l7.39 71.012c.509 4.894-1.088 9.796-4.382 13.451s-8.005 5.751-12.924 5.751zm-6.125-88.007-7.204 69.219c-.392 3.769.838 7.544 3.375 10.359s6.165 4.429 9.954 4.429 7.417-1.614 9.954-4.429 3.767-6.59 3.375-10.359l-7.204-69.219z" fill="#690589"/></g><g><circle cx="190.664" cy="120.259" fill="#fcc24c" r="50.341"/></g><g><path d="m189.495 170.417c.867.071 1.741.116 2.619.147 27.13-.77 48.891-22.988 48.891-50.305s-21.762-49.537-48.894-50.305c-.877.031-1.75.076-2.617.147 25.863 2.109 46.198 23.751 46.198 50.158.002 26.406-20.334 48.049-46.197 50.158z" fill="#dea42e"/></g><g><path d="m191.833 70.101c-.867-.071-1.741-.116-2.619-.147-27.131.769-48.892 22.988-48.892 50.305s21.762 49.537 48.894 50.305c.877-.031 1.75-.076 2.616-.147-25.863-2.109-46.198-23.751-46.198-50.158.001-26.406 20.337-48.049 46.199-50.158z" fill="#fce06a"/></g><g><path d="m190.665 172.576c-13.404 0-26.807-5.102-37.011-15.306-20.408-20.408-20.408-53.614 0-74.022s53.614-20.409 74.022 0c9.886 9.886 15.331 23.03 15.331 37.011s-5.444 27.125-15.331 37.011c-10.204 10.204-23.608 15.306-37.011 15.306zm0-100.636c-12.381 0-24.757 4.71-34.183 14.136-18.848 18.849-18.848 49.517 0 68.366 9.423 9.423 21.805 14.135 34.183 14.136 12.381.001 24.757-4.71 34.183-14.136 9.13-9.131 14.159-21.271 14.159-34.183s-5.028-25.052-14.159-34.183c-9.424-9.423-21.806-14.136-34.183-14.136z" fill="#690589"/></g><g><circle cx="190.664" cy="120.259" fill="#f4efed" r="37.14"/></g><g><path d="m190.665 159.381c-10.023 0-20.045-3.815-27.676-11.446-7.393-7.393-11.464-17.222-11.464-27.676s4.071-20.284 11.464-27.676c15.261-15.26 40.092-15.261 55.352 0 15.261 15.26 15.261 40.091 0 55.352-7.631 7.63-17.653 11.446-27.676 11.446zm0-74.262c-9.386 0-18.21 3.655-24.848 10.292-6.637 6.637-10.292 15.461-10.292 24.848s3.655 18.211 10.292 24.848c13.701 13.7 35.994 13.7 49.695 0 13.701-13.702 13.701-35.995 0-49.696-6.637-6.637-15.461-10.292-24.847-10.292z" fill="#690589"/></g><g><path d="m193.616 124.243v4.046c0 1.743-1.308 3.051-3.051 3.051-1.618 0-3.05-1.307-3.05-3.051v-6.474c0-.062.062-.062.062-.124-.062-.062-.062-.062-.062-.125 0-1.618 1.432-3.05 3.05-3.05 3.922 0 7.096-3.112 7.096-6.972 0-3.922-3.175-6.972-7.096-6.972-2.552 0-4.793 1.369-5.976 3.424-.872 1.493-2.739 1.992-4.233 1.12-1.432-.871-1.93-2.677-1.058-4.171 2.241-3.859 6.474-6.474 11.267-6.474 7.221 0 13.135 5.852 13.135 13.072 0 6.164-4.295 11.33-10.084 12.7zm0 13.633v1.12c0 1.743-1.308 3.05-3.051 3.05-1.618 0-3.05-1.307-3.05-3.05v-1.12c0-1.681 1.432-3.051 3.05-3.051 1.744 0 3.051 1.37 3.051 3.051z" fill="#690589"/></g><g><path d="m66.127 184.946v-14.715h15.683v14.715h10.968c5.485.007 9.926 4.511 9.919 9.996v13.228h-57.528v-13.31c.007-5.485 4.485-9.926 9.97-9.919z" fill="#8852a8"/></g><g><path d="m102.696 210.17h-57.527c-1.104 0-2-.896-2-2v-13.31c.009-6.576 5.372-11.919 11.958-11.919h.015l8.985.003v-12.714c0-1.104.896-2 2-2h15.683c1.104 0 2 .896 2 2v12.715h8.968c3.189.004 6.186 1.26 8.44 3.537 2.248 2.27 3.483 5.275 3.479 8.462v13.226c-.001 1.104-.896 2-2.001 2zm-55.527-4h53.527v-11.228c.003-2.127-.821-4.131-2.321-5.645-1.499-1.513-3.488-2.348-5.601-2.351h-10.964c-1.104 0-2-.896-2-2v-12.716h-11.683v12.715c0 .531-.211 1.04-.586 1.415s-.884.585-1.414.585c0 0 0 0-.001 0l-10.987-.004c-.003 0-.007 0-.01 0-4.385 0-7.954 3.551-7.96 7.921z" fill="#690589"/></g><g><path d="m66.127 170.231h15.683v15.769c0 4.331-3.511 7.841-7.841 7.841-4.331 0-7.841-3.511-7.841-7.841v-15.769z" fill="#ff9f70"/></g><g><path d="m73.968 195.841c-5.427 0-9.841-4.415-9.841-9.841v-15.77c0-1.104.896-2 2-2h15.683c1.104 0 2 .896 2 2v15.77c0 5.426-4.415 9.841-9.842 9.841zm-5.841-23.611v13.77c0 3.221 2.621 5.841 5.841 5.841s5.842-2.621 5.842-5.841v-13.77z" fill="#690589"/></g><g><path d="m58.403 156.807h-1.11c-2.869 0-5.195 2.326-5.195 5.195s2.326 5.195 5.195 5.195h1.11z" fill="#ffbd8e"/></g><g><path d="m90.602 156.807h-1.11v10.389h1.11c2.869 0 5.195-2.326 5.195-5.195s-2.326-5.194-5.195-5.194z" fill="#e18152"/></g><g><path d="m73.947 183.214c-8.585 0-15.545-7.05-15.545-15.747v-10.901c0-8.697 6.96-15.747 15.545-15.747 8.585 0 15.545 7.05 15.545 15.747v10.901c0 8.697-6.96 15.747-15.545 15.747z" fill="#ff9f70"/></g><g><path d="m73.947 185.214c-9.674 0-17.545-7.961-17.545-17.747v-10.901c0-9.785 7.871-17.746 17.545-17.746s17.545 7.961 17.545 17.746v10.901c0 9.786-7.87 17.747-17.545 17.747zm0-42.394c-7.469 0-13.545 6.167-13.545 13.746v10.901c0 7.58 6.076 13.747 13.545 13.747s13.545-6.167 13.545-13.747v-10.901c0-7.58-6.076-13.746-13.545-13.746z" fill="#690589"/></g><g><path d="m58.402 169.196h-1.109c-3.967 0-7.195-3.228-7.195-7.195s3.228-7.195 7.195-7.195h1.109c1.104 0 2 .896 2 2v10.39c0 1.105-.895 2-2 2zm-2-10.263c-1.33.386-2.304 1.616-2.304 3.068s.975 2.682 2.304 3.068z" fill="#690589"/></g><g><path d="m90.602 169.196h-1.109c-1.104 0-2-.896-2-2v-10.39c0-1.104.896-2 2-2h1.109c3.967 0 7.195 3.228 7.195 7.195s-3.228 7.195-7.195 7.195zm.89-10.263v6.137c1.33-.386 2.304-1.616 2.304-3.068s-.974-2.683-2.304-3.069z" fill="#690589"/></g><g><path d="m66.127 82.861v-14.715h15.683v14.715h10.968c5.485.007 9.926 4.511 9.919 9.996v13.228h-57.528v-13.31c.007-5.485 4.485-9.926 9.97-9.919z" fill="#f4efed"/></g><g><path d="m102.696 108.085h-57.527c-1.104 0-2-.896-2-2v-13.31c.009-6.576 5.372-11.919 11.958-11.919h.015l8.985.004v-12.714c0-1.104.896-2 2-2h15.683c1.104 0 2 .896 2 2v12.715h8.968c3.189.004 6.186 1.26 8.44 3.536 2.248 2.27 3.483 5.275 3.479 8.462v13.225c-.001 1.105-.896 2.001-2.001 2.001zm-55.527-4h53.527v-11.228c.003-2.127-.821-4.131-2.321-5.645-1.499-1.514-3.488-2.349-5.601-2.351h-10.964c-1.104 0-2-.896-2-2v-12.715h-11.683v12.715c0 .531-.211 1.04-.586 1.415s-.884.585-1.414.585c0 0 0 0-.001 0l-10.987-.005c-.003 0-.007 0-.01 0-4.385 0-7.954 3.551-7.959 7.921v11.308z" fill="#690589"/></g><g><path d="m66.127 68.146h15.683v15.769c0 4.331-3.511 7.841-7.841 7.841-4.331 0-7.841-3.511-7.841-7.841v-15.769z" fill="#ff9f70"/></g><g><path d="m73.968 93.756c-5.427 0-9.841-4.415-9.841-9.841v-15.769c0-1.104.896-2 2-2h15.683c1.104 0 2 .896 2 2v15.769c0 5.426-4.415 9.841-9.842 9.841zm-5.841-23.61v13.769c0 3.221 2.621 5.841 5.841 5.841s5.841-2.621 5.841-5.841v-13.769z" fill="#690589"/></g><g><path d="m58.403 54.722h-1.11c-2.869 0-5.195 2.326-5.195 5.195s2.326 5.195 5.195 5.195h1.11z" fill="#ffbd8e"/></g><g><path d="m90.602 54.722h-1.11v10.389h1.11c2.869 0 5.195-2.326 5.195-5.195s-2.326-5.194-5.195-5.194z" fill="#e18152"/></g><g><path d="m73.947 81.129c-8.585 0-15.545-7.05-15.545-15.747v-10.901c0-8.697 6.96-15.747 15.545-15.747 8.585 0 15.545 7.05 15.545 15.747v10.901c0 8.697-6.96 15.747-15.545 15.747z" fill="#ff9f70"/></g><g><path d="m73.947 83.129c-9.674 0-17.545-7.961-17.545-17.747v-10.901c0-9.786 7.871-17.747 17.545-17.747s17.545 7.961 17.545 17.747v10.901c0 9.786-7.87 17.747-17.545 17.747zm0-42.394c-7.469 0-13.545 6.167-13.545 13.747v10.901c0 7.58 6.076 13.747 13.545 13.747s13.545-6.167 13.545-13.747v-10.902c0-7.58-6.076-13.746-13.545-13.746z" fill="#690589"/></g><g><path d="m58.402 67.111h-1.109c-3.967 0-7.195-3.228-7.195-7.195s3.228-7.195 7.195-7.195h1.109c1.104 0 2 .896 2 2v10.39c0 1.105-.895 2-2 2zm-2-10.263c-1.33.386-2.304 1.616-2.304 3.068s.975 2.682 2.304 3.068z" fill="#690589"/></g><g><path d="m90.602 67.111h-1.109c-1.104 0-2-.896-2-2v-10.39c0-1.104.896-2 2-2h1.109c3.967 0 7.195 3.228 7.195 7.195s-3.228 7.195-7.195 7.195zm.89-10.263v6.137c1.33-.386 2.304-1.616 2.304-3.068s-.974-2.683-2.304-3.069z" fill="#690589"/></g><g><path d="m29.803 48.709c-.339 0-.683-.086-.998-.269-.957-.552-1.284-1.775-.732-2.732l5.023-8.7c.552-.957 1.775-1.285 2.732-.732.957.552 1.284 1.775.732 2.732l-5.023 8.7c-.37.643-1.042 1.001-1.734 1.001z" fill="#690589"/></g></g></svg>